<svg width="26" height="25" viewBox="0 0 26 25" fill="none" xmlns="http://www.w3.org/2000/svg">
<path d="M19.7708 13.177V17.0312C19.7708 20.2812 16.7396 22.9166 13 22.9166C9.26041 22.9166 6.22916 20.2812 6.22916 17.0312V13.177C6.22916 16.427 9.26041 18.7499 13 18.7499C16.7396 18.7499 19.7708 16.427 19.7708 13.177Z" stroke="black" stroke-width="1.5" stroke-linecap="round" stroke-linejoin="round"/>
<path d="M19.7708 7.96867C19.7708 8.91658 19.5104 9.79158 19.0521 10.5416C17.9375 12.3749 15.6458 13.5416 13 13.5416C10.3542 13.5416 8.06249 12.3749 6.94791 10.5416C6.48957 9.79158 6.22916 8.91658 6.22916 7.96867C6.22916 6.34367 6.98956 4.87492 8.20831 3.81242C9.43748 2.7395 11.125 2.08325 13 2.08325C14.875 2.08325 16.5625 2.7395 17.7917 3.802C19.0104 4.87492 19.7708 6.34367 19.7708 7.96867Z" stroke="black" stroke-width="1.5" stroke-linecap="round" stroke-linejoin="round"/>
<path d="M19.7708 7.96867V13.177C19.7708 16.427 16.7396 18.7499 13 18.7499C9.26041 18.7499 6.22916 16.427 6.22916 13.177V7.96867C6.22916 4.71867 9.26041 2.08325 13 2.08325C14.875 2.08325 16.5625 2.7395 17.7917 3.802C19.0104 4.87492 19.7708 6.34367 19.7708 7.96867Z" stroke="black" stroke-width="1.5" stroke-linecap="round" stroke-linejoin="round"/>
</svg>
