<svg width="26" height="25" viewBox="0 0 26 25" fill="none" xmlns="http://www.w3.org/2000/svg">
<path d="M18.2083 13.9584V17.0834C18.2083 21.2501 16.5417 22.9167 12.375 22.9167H8.41668C4.25001 22.9167 2.58334 21.2501 2.58334 17.0834V13.1251C2.58334 8.95842 4.25001 7.29175 8.41668 7.29175H11.5417" stroke="black" stroke-width="1.5" stroke-linecap="round" stroke-linejoin="round"/>
<path d="M18.2083 13.9584H14.875C12.375 13.9584 11.5417 13.1251 11.5417 10.6251V7.29175L18.2083 13.9584Z" stroke="black" stroke-width="1.5" stroke-linecap="round" stroke-linejoin="round"/>
<path d="M12.5833 2.08325H16.75" stroke="black" stroke-width="1.5" stroke-linecap="round" stroke-linejoin="round"/>
<path d="M7.79166 5.20825C7.79166 3.47909 9.18749 2.08325 10.9167 2.08325H13.6458" stroke="black" stroke-width="1.5" stroke-linecap="round" stroke-linejoin="round"/>
<path d="M23.4166 8.33325V14.7812C23.4166 16.3958 22.1041 17.7083 20.4895 17.7083" stroke="black" stroke-width="1.5" stroke-linecap="round" stroke-linejoin="round"/>
<path d="M23.4167 8.33325H20.2917C17.9479 8.33325 17.1667 7.552 17.1667 5.20825V2.08325L23.4167 8.33325Z" stroke="black" stroke-width="1.5" stroke-linecap="round" stroke-linejoin="round"/>
</svg>
