<svg width="26" height="25" viewBox="0 0 26 25" fill="none" xmlns="http://www.w3.org/2000/svg">
<path d="M13 22.9166C18.753 22.9166 23.4167 18.2529 23.4167 12.4999C23.4167 6.74695 18.753 2.08325 13 2.08325C7.24704 2.08325 2.58334 6.74695 2.58334 12.4999C2.58334 22.9166 2.58335 22.9166 13 22.9166Z" stroke="black" stroke-width="1.5" stroke-linecap="round" stroke-linejoin="round"/>
<path d="M9.96875 9.37511C10.2137 8.67893 10.697 8.09188 11.3333 7.71795C11.9695 7.34402 12.7176 7.20733 13.445 7.3321C14.1724 7.45686 14.8321 7.83503 15.3074 8.39961C15.7826 8.9642 16.0428 9.67877 16.0417 10.4168C16.0417 12.5001 12.9167 13.5418 12.9167 13.5418" stroke="black" stroke-width="1.5" stroke-linecap="round" stroke-linejoin="round"/>
<path d="M13 17.7083H13.0098" stroke="black" stroke-width="2" stroke-linecap="round" stroke-linejoin="round"/>
</svg>
