<svg width="20" height="20" viewBox="0 0 20 20" fill="none" xmlns="http://www.w3.org/2000/svg">
<path d="M14.6166 6.92495C15.7488 6.92495 16.6667 6.00713 16.6667 4.87495C16.6667 3.74277 15.7488 2.82495 14.6166 2.82495C13.4844 2.82495 12.5667 3.74277 12.5667 4.87495C12.5667 6.00713 13.4844 6.92495 14.6166 6.92495Z" stroke="black" stroke-width="1.5" stroke-miterlimit="10" stroke-linecap="round" stroke-linejoin="round"/>
<path d="M5.38332 6.92495C6.5155 6.92495 7.43331 6.00713 7.43331 4.87495C7.43331 3.74277 6.5155 2.82495 5.38332 2.82495C4.25114 2.82495 3.33331 3.74277 3.33331 4.87495C3.33331 6.00713 4.25114 6.92495 5.38332 6.92495Z" stroke="black" stroke-width="1.5" stroke-miterlimit="10" stroke-linecap="round" stroke-linejoin="round"/>
<path d="M14.6166 17.175C15.7488 17.175 16.6667 16.2572 16.6667 15.125C16.6667 13.9928 15.7488 13.075 14.6166 13.075C13.4844 13.075 12.5667 13.9928 12.5667 15.125C12.5667 16.2572 13.4844 17.175 14.6166 17.175Z" stroke="black" stroke-width="1.5" stroke-miterlimit="10" stroke-linecap="round" stroke-linejoin="round"/>
<path d="M5.38332 17.175C6.5155 17.175 7.43331 16.2572 7.43331 15.125C7.43331 13.9928 6.5155 13.075 5.38332 13.075C4.25114 13.075 3.33331 13.9928 3.33331 15.125C3.33331 16.2572 4.25114 17.175 5.38332 17.175Z" stroke="black" stroke-width="1.5" stroke-miterlimit="10" stroke-linecap="round" stroke-linejoin="round"/>
</svg>
