<svg width="25" height="25" viewBox="0 0 25 25" fill="none" xmlns="http://www.w3.org/2000/svg">
<path d="M5.20833 10.4167C4.0625 10.4167 3.125 11.3542 3.125 12.5001C3.125 13.6459 4.0625 14.5834 5.20833 14.5834C6.35417 14.5834 7.29167 13.6459 7.29167 12.5001C7.29167 11.3542 6.35417 10.4167 5.20833 10.4167Z" stroke="#292D32" stroke-width="1.5"/>
<path d="M19.7918 10.4167C18.646 10.4167 17.7085 11.3542 17.7085 12.5001C17.7085 13.6459 18.646 14.5834 19.7918 14.5834C20.9377 14.5834 21.8752 13.6459 21.8752 12.5001C21.8752 11.3542 20.9377 10.4167 19.7918 10.4167Z" stroke="#292D32" stroke-width="1.5"/>
<path d="M12.4998 10.4167C11.354 10.4167 10.4165 11.3542 10.4165 12.5001C10.4165 13.6459 11.354 14.5834 12.4998 14.5834C13.6457 14.5834 14.5832 13.6459 14.5832 12.5001C14.5832 11.3542 13.6457 10.4167 12.4998 10.4167Z" stroke="#292D32" stroke-width="1.5"/>
</svg>
