<svg width="30" height="30" viewBox="0 0 30 30" fill="none" xmlns="http://www.w3.org/2000/svg">
<path d="M15.025 3.63733C10.8875 3.63733 7.52496 6.99983 7.52496 11.1373V14.7498C7.52496 15.5123 7.19996 16.6748 6.81246 17.3248L5.37496 19.7123C4.48746 21.1873 5.09996 22.8248 6.72496 23.3748C12.1125 25.1748 17.925 25.1748 23.3125 23.3748C24.825 22.8748 25.4875 21.0873 24.6625 19.7123L23.225 17.3248C22.85 16.6748 22.525 15.5123 22.525 14.7498V11.1373C22.525 7.01233 19.15 3.63733 15.025 3.63733Z" stroke="#A1A1A1" stroke-width="1.5" stroke-miterlimit="10" stroke-linecap="round"/>
<path d="M17.3375 3.99993C16.95 3.88743 16.55 3.79993 16.1375 3.74993C14.9375 3.59993 13.7875 3.68743 12.7125 3.99993C13.075 3.07493 13.975 2.42493 15.025 2.42493C16.075 2.42493 16.975 3.07493 17.3375 3.99993Z" stroke="#A1A1A1" stroke-width="1.5" stroke-miterlimit="10" stroke-linecap="round" stroke-linejoin="round"/>
<path d="M18.775 23.8251C18.775 25.8876 17.0875 27.5751 15.025 27.5751C14 27.5751 13.05 27.1501 12.375 26.4751C11.7 25.8001 11.275 24.8501 11.275 23.8251" stroke="#A1A1A1" stroke-width="1.5" stroke-miterlimit="10"/>
</svg>
