<svg width="20" height="20" viewBox="0 0 20 20" fill="none" xmlns="http://www.w3.org/2000/svg">
<path d="M9.98333 2.42493C12.7417 2.42493 14.9834 4.66659 14.9834 7.42493V9.83325C14.9834 10.3416 15.2 11.1166 15.4584 11.5499L16.4167 13.1416C17.0084 14.1249 16.6 15.2166 15.5167 15.5833C11.925 16.7833 8.05 16.7833 4.45833 15.5833C3.45 15.2499 3.00833 14.0583 3.55833 13.1416L4.51667 11.5499C4.76667 11.1166 4.98333 10.3416 4.98333 9.83325V7.42493C4.98333 4.67493 7.23333 2.42493 9.98333 2.42493Z" stroke="black" stroke-width="1.5" stroke-miterlimit="10" stroke-linecap="round"/>
<path d="M8.44167 2.66664C8.7 2.59164 8.96667 2.5333 9.24167 2.49997C10.0417 2.39997 10.8083 2.4583 11.525 2.66664C11.2833 2.04997 10.6833 1.61664 9.98333 1.61664C9.28333 1.61664 8.68333 2.04997 8.44167 2.66664Z" stroke="black" stroke-width="1.5" stroke-miterlimit="10" stroke-linecap="round" stroke-linejoin="round"/>
<path d="M7.48333 15.8834C7.48333 17.2584 8.60833 18.3834 9.98333 18.3834C10.6667 18.3834 11.3 18.1001 11.75 17.6501C12.2 17.2001 12.4833 16.5668 12.4833 15.8834" stroke="black" stroke-width="1.5" stroke-miterlimit="10"/>
</svg>
