<svg width="25" height="25" viewBox="0 0 25 25" fill="none" xmlns="http://www.w3.org/2000/svg">
<path d="M17.7083 13.9583V17.0833C17.7083 21.25 16.0416 22.9166 11.875 22.9166H7.91665C3.74998 22.9166 2.08331 21.25 2.08331 17.0833V13.125C2.08331 8.95829 3.74998 7.29163 7.91665 7.29163H11.0416" stroke="black" stroke-width="1.5" stroke-linecap="round" stroke-linejoin="round"/>
<path d="M17.7084 13.9583H14.375C11.875 13.9583 11.0417 13.125 11.0417 10.625V7.29163L17.7084 13.9583Z" stroke="black" stroke-width="1.5" stroke-linecap="round" stroke-linejoin="round"/>
<path d="M12.0833 2.08337H16.25" stroke="black" stroke-width="1.5" stroke-linecap="round" stroke-linejoin="round"/>
<path d="M7.29169 5.20837C7.29169 3.47921 8.68752 2.08337 10.4167 2.08337H13.1459" stroke="black" stroke-width="1.5" stroke-linecap="round" stroke-linejoin="round"/>
<path d="M22.9166 8.33337V14.7813C22.9166 16.3959 21.6041 17.7084 19.9895 17.7084" stroke="black" stroke-width="1.5" stroke-linecap="round" stroke-linejoin="round"/>
<path d="M22.9167 8.33337H19.7917C17.4479 8.33337 16.6667 7.55212 16.6667 5.20837V2.08337L22.9167 8.33337Z" stroke="black" stroke-width="1.5" stroke-linecap="round" stroke-linejoin="round"/>
</svg>
